<svg version="1.1" id="Layer_1" xmlns="http://www.w3.org/2000/svg" xmlns:xlink="http://www.w3.org/1999/xlink" x="0px" y="0px"
	 width="100%" viewBox="0 0 1024 1024" enable-background="new 0 0 1024 1024" xml:space="preserve">
<path fill="#000000" opacity="1.000000" stroke="none" 
	d="
M277.899139,761.997925 
	C281.900513,753.711853 285.791870,745.789429 289.553833,737.806030 
	C290.794617,735.172852 292.057190,734.076904 295.305756,735.173340 
	C331.092285,747.251099 365.599213,742.502441 398.676208,725.889893 
	C438.312012,705.983398 459.597565,672.059814 469.493835,630.002686 
	C472.767853,616.088806 474.785553,601.981140 475.738678,587.684570 
	C477.789459,556.923828 476.828583,526.102173 477.915039,495.340759 
	C478.904449,467.326569 480.364227,439.197540 489.616302,412.257935 
	C495.024292,396.511383 502.753021,382.056854 513.323425,369.159515 
	C513.952332,368.392120 514.644714,367.670471 515.364990,366.988190 
	C515.564941,366.798737 515.971619,366.827606 516.395569,366.730713 
	C518.008972,368.158691 517.310059,370.111511 517.310974,371.809113 
	C517.346558,435.631561 517.897705,499.461060 517.097534,563.273560 
	C516.681946,596.421082 510.293457,628.700867 494.544159,658.454163 
	C491.511871,664.182800 487.983093,669.662537 484.458832,675.111877 
	C482.145660,678.688599 482.034088,682.070679 483.734924,685.919373 
	C494.086517,709.343140 511.360779,725.953186 534.864380,735.334595 
	C563.823914,746.893738 593.603638,747.199036 623.305725,737.894958 
	C641.536926,732.184143 649.773621,720.416748 649.761719,701.391785 
	C649.744141,673.230408 649.996399,645.062012 649.442200,616.910278 
	C649.122925,600.695740 646.062927,585.068298 632.520813,573.786072 
	C622.901367,565.771912 611.374512,562.803833 599.342407,561.498840 
	C595.801025,561.114685 594.737000,559.830505 594.864136,556.564697 
	C595.019714,552.571289 595.141296,548.550964 594.855469,544.572632 
	C594.532349,540.073425 596.086853,538.520020 600.766479,538.546204 
	C631.926819,538.720642 663.088623,538.618530 694.250000,538.611206 
	C723.411682,538.604309 752.573303,538.599854 781.734985,538.609131 
	C783.368164,538.609680 785.001343,538.745850 786.979126,538.834351 
	C786.979126,545.876404 786.979126,552.614563 786.979126,559.356812 
	C785.253296,560.800720 783.128479,560.831421 781.262390,561.065308 
	C763.740845,563.261780 751.948303,578.612366 748.437744,593.939758 
	C746.844788,600.894836 746.339600,608.040466 746.362122,615.220459 
	C746.433594,638.049622 746.304077,660.879639 746.413635,683.708496 
	C746.447144,690.693726 746.924316,697.681152 747.352966,704.658081 
	C747.531616,707.566589 746.538879,709.651123 744.441101,711.667053 
	C713.977478,740.942139 677.861389,759.497314 636.674561,768.215454 
	C613.989441,773.017273 590.953552,774.768372 567.781616,774.199707 
	C524.585022,773.139709 483.780548,763.628540 447.224548,739.460205 
	C443.905365,737.265686 440.633423,734.999695 436.976105,732.520630 
	C426.816895,742.976379 415.446106,751.856873 403.300018,759.772095 
	C375.668549,777.778625 346.134613,791.218262 313.278656,796.064880 
	C298.452820,798.251892 283.458710,798.663086 268.613434,795.383240 
	C266.975525,795.021362 265.381439,794.725037 263.976685,793.194519 
	C267.899597,782.682068 272.969299,772.575317 277.899139,761.997925 
z"/>
<path fill="#000000" opacity="1.000000" stroke="none" 
	d="
M647.390015,335.608765 
	C624.872803,320.450958 600.118713,315.779968 573.835388,317.454620 
	C532.167358,320.109528 503.106506,341.972168 483.081604,377.370636 
	C469.936493,400.607574 463.272400,425.841858 460.287689,452.224731 
	C457.268097,478.915741 457.437500,505.701324 457.185028,532.494263 
	C456.978149,554.451782 456.724487,576.447388 454.256531,598.290955 
	C451.179688,625.523804 443.801270,651.432129 428.738434,674.723145 
	C422.575256,684.252930 414.409424,691.731689 405.231354,698.270691 
	C402.210846,700.422668 400.342957,700.329712 397.761383,697.382385 
	C382.082245,679.481995 370.906006,658.949951 361.893158,637.113220 
	C349.578064,607.275818 344.004883,576.114990 342.507263,543.943115 
	C340.991272,511.376251 344.844543,479.655670 354.407227,448.553467 
	C378.071289,371.587219 428.302948,321.473358 505.683319,298.740692 
	C523.945007,293.375824 542.662964,291.059174 561.575500,289.568390 
	C608.115173,285.899750 652.654236,293.965668 695.520020,311.951416 
	C708.284973,317.307434 720.391113,324.001190 732.043457,331.508301 
	C734.421936,333.040680 735.365845,334.857208 735.362122,337.659760 
	C735.307373,378.992126 735.305176,420.324615 735.379456,461.656952 
	C735.385437,464.987305 734.430786,466.527252 730.848938,466.422302 
	C724.021301,466.222198 717.179688,466.179260 710.353088,466.381195 
	C706.485046,466.495636 705.805786,464.752411 705.564148,461.281982 
	C704.110107,440.399078 702.224426,419.556061 695.416931,399.549286 
	C686.428040,373.131531 670.111938,352.182159 647.390015,335.608765 
z"/>
<path fill="#000000" opacity="1.000000" stroke="none" 
	d="
M430.000061,157.675140 
	C473.803558,157.676956 517.106995,157.676422 560.410461,157.683868 
	C567.060547,157.685013 567.086853,157.727051 567.313110,164.245056 
	C567.318848,164.411484 567.322510,164.578003 567.326965,164.744476 
	C567.603577,175.166687 567.606873,175.178940 557.555359,177.954071 
	C534.270386,184.382828 522.471313,200.841385 518.418823,223.582382 
	C515.835205,238.081100 517.683594,252.812164 517.433594,267.434204 
	C517.358887,271.802399 516.226013,273.751617 511.723694,274.936890 
	C480.571320,283.137604 451.494293,296.041626 424.858521,314.289032 
	C422.855255,315.661469 421.065643,317.510071 418.470276,317.992798 
	C417.063751,316.315002 417.681763,314.414551 417.678284,312.684998 
	C417.627045,287.036133 417.810669,261.385468 417.560608,235.738907 
	C417.428955,222.239929 414.157013,209.541000 406.553314,198.033936 
	C398.300751,185.544922 386.655182,178.731354 372.201691,176.453751 
	C368.861725,175.927444 367.703613,174.830002 367.603638,171.491241 
	C367.190063,157.682632 367.101013,157.686157 381.033356,157.684357 
	C397.188934,157.682251 413.344482,157.678452 430.000061,157.675140 
z"/>
</svg>